<svg width="15" height="14" viewBox="0 0 15 14" fill="none" xmlns="http://www.w3.org/2000/svg">
<path d="M7.37382 13.9902C5.76504 13.9902 4.15625 14.003 2.54824 13.9804C2.16824 13.9751 1.76799 13.9043 1.41602 13.7688C0.63421 13.4684 0.337527 12.8209 0.331298 12.0559C0.314945 10.1871 0.326626 8.3183 0.326626 6.44877C0.326626 5.24482 0.31183 4.04013 0.336749 2.83618C0.343757 2.49435 0.403717 2.12692 0.549333 1.81972C0.796958 1.29643 1.30623 1.13229 1.87545 1.1353C2.41976 1.13832 2.96485 1.13832 3.50916 1.15563C3.83076 1.16542 4.0083 1.07055 3.94523 0.72646C3.93432 0.666225 3.94523 0.601472 3.94678 0.538979C3.95535 0.0616179 4.21388 -0.116075 4.68421 0.060865C4.76286 0.0902295 4.82593 0.248346 4.83216 0.350745C4.8781 1.13304 4.87343 1.13304 5.68717 1.1338C6.90661 1.13455 8.12604 1.12552 9.34548 1.14359C9.69589 1.14886 9.86098 1.05323 9.8127 0.700107C9.80102 0.613519 9.82282 0.523167 9.81036 0.437333C9.76442 0.121853 9.90225 0.0435475 10.2231 0.0277359C10.6288 0.00815959 10.7705 0.136911 10.7082 0.514132C10.6918 0.612014 10.716 0.715166 10.7082 0.814553C10.6864 1.06152 10.8032 1.14509 11.0516 1.13982C11.6216 1.12627 12.1939 1.09766 12.7616 1.13606C13.8323 1.20909 14.3159 1.72786 14.3206 2.76164C14.326 4.04088 14.3167 5.32012 14.3159 6.59935C14.3143 8.34315 14.326 10.0862 14.305 11.83C14.3003 12.1982 14.2388 12.5897 14.0963 12.927C13.7724 13.692 13.0801 13.9721 12.2812 13.9819C10.6467 14.003 9.0122 13.9879 7.37772 13.9879V13.9902H7.37382ZM13.3822 6.09564C13.0544 6.11296 12.771 6.14157 12.4883 6.14157C9.11499 6.14533 5.7409 6.14458 2.36759 6.14458C2.12152 6.14458 1.86221 6.18223 1.63094 6.1235C1.22057 6.01959 1.17774 6.19879 1.18241 6.52255C1.19643 7.45092 1.18553 8.37929 1.18942 9.30766C1.19254 10.2232 1.16684 11.1403 1.21901 12.0536C1.26495 12.8653 1.58889 13.125 2.43533 13.1401C3.25219 13.1544 4.06982 13.1476 4.88745 13.1461C7.37849 13.1416 9.86954 13.1446 12.3606 13.1235C13.0466 13.1175 13.3931 12.7757 13.4001 12.1184C13.4204 10.1743 13.4173 8.22946 13.4212 6.28538C13.4212 6.2259 13.397 6.16717 13.3822 6.09639V6.09564ZM9.81036 3.67495C9.81036 3.19006 9.80258 2.75411 9.81348 2.31892C9.81971 2.05991 9.71225 1.97031 9.4436 1.97181C8.03026 1.9816 6.61693 1.98236 5.2036 1.97483C4.93573 1.97332 4.82982 2.06367 4.83761 2.32419C4.85085 2.75863 4.8415 3.19383 4.8415 3.64182H3.94912C3.94912 3.17049 3.96781 2.73153 3.93666 2.29633C3.92887 2.18414 3.76457 1.99139 3.67112 1.99064C3.11669 1.98838 2.55759 1.99967 2.00861 2.06819C1.52115 2.12842 1.2743 2.4055 1.24081 2.87534C1.20188 3.42423 1.18319 3.97688 1.19954 4.52728C1.21823 5.18007 1.36774 5.29 2.06078 5.29C4.93962 5.28849 7.81846 5.29 10.6965 5.28849C11.4098 5.28849 12.1231 5.28322 12.8356 5.27946C13.2148 5.2772 13.4118 5.09875 13.4095 4.72454C13.4064 4.12295 13.4157 3.52135 13.3994 2.91976C13.3877 2.47703 13.1198 2.13897 12.6651 2.07873C12.1044 2.00419 11.5336 1.99214 10.9667 1.98612C10.8811 1.98537 10.7261 2.15854 10.7175 2.26019C10.6872 2.64644 10.7175 3.03797 10.6911 3.42498C10.6848 3.51307 10.5509 3.64634 10.4559 3.66366C10.2597 3.70055 10.051 3.67495 9.80958 3.67495H9.81036Z" fill="#777777"/>
</svg>
