<svg xmlns="http://www.w3.org/2000/svg">
	<symbol id="arrow-right" viewBox="0 0 11 9">
		<path xmlns="http://www.w3.org/2000/svg" d="M10.3541 4.853C10.5491 4.65742 10.5485 4.34084 10.353 4.14589L7.16591 0.969001C6.97034 0.774051 6.65376 0.774557 6.45881 0.970131C6.26386 1.1657 6.26436 1.48229 6.45994 1.67724L9.29288 4.50114L6.46898 7.33408C6.27403 7.52966 6.27453 7.84624 6.47011 8.04119C6.66568 8.23614 6.98226 8.23563 7.17721 8.04006L10.3541 4.853ZM0.000799047 5.01599L10.0008 5.00001L9.99919 4.00001L-0.000799047 4.01599L0.000799047 5.01599Z"/>
	</symbol>
	<symbol id="arrow-right-long" viewBox="0 0 512 404.39" style="shape-rendering:geometricPrecision; text-rendering:geometricPrecision; image-rendering:optimizeQuality; fill-rule:evenodd; clip-rule:evenodd">
		<path fill-rule="nonzero" d="M438.95 219.45 0 219.99v-34.98l443.3-.55L269.8 25.79 293.39 0 512 199.92 288.88 404.39l-23.59-25.8z"/>
	</symbol>
	<symbol id="arrow-up-right" viewBox="0 0 16 16" fill="none">
		<path fill-rule="evenodd" clip-rule="evenodd" d="M0.892785 7.10721C1.08317 7.2976 1.39183 7.2976 1.58221 7.10721L6.275 2.41443V6.1125C6.275 6.38174 6.49326 6.6 6.7625 6.6C7.03174 6.6 7.25 6.38174 7.25 6.1125V1.2375C7.25 0.968262 7.03174 0.75 6.7625 0.75H1.8875C1.61826 0.75 1.4 0.968262 1.4 1.2375C1.4 1.50674 1.61826 1.725 1.8875 1.725H5.58557L0.892785 6.41779C0.702405 6.60817 0.702405 6.91683 0.892785 7.10721Z"/>
	</symbol>
	<symbol id="calendar" viewBox="0 0 15 14">
		<path d="M7.37382 13.9902C5.76504 13.9902 4.15625 14.003 2.54824 13.9804C2.16824 13.9751 1.76799 13.9043 1.41602 13.7688C0.63421 13.4684 0.337527 12.8209 0.331298 12.0559C0.314945 10.1871 0.326626 8.3183 0.326626 6.44877C0.326626 5.24482 0.31183 4.04013 0.336749 2.83618C0.343757 2.49435 0.403717 2.12692 0.549333 1.81972C0.796958 1.29643 1.30623 1.13229 1.87545 1.1353C2.41976 1.13832 2.96485 1.13832 3.50916 1.15563C3.83076 1.16542 4.0083 1.07055 3.94523 0.72646C3.93432 0.666225 3.94523 0.601472 3.94678 0.538979C3.95535 0.0616179 4.21388 -0.116075 4.68421 0.060865C4.76286 0.0902295 4.82593 0.248346 4.83216 0.350745C4.8781 1.13304 4.87343 1.13304 5.68717 1.1338C6.90661 1.13455 8.12604 1.12552 9.34548 1.14359C9.69589 1.14886 9.86098 1.05323 9.8127 0.700107C9.80102 0.613519 9.82282 0.523167 9.81036 0.437333C9.76442 0.121853 9.90225 0.0435475 10.2231 0.0277359C10.6288 0.00815959 10.7705 0.136911 10.7082 0.514132C10.6918 0.612014 10.716 0.715166 10.7082 0.814553C10.6864 1.06152 10.8032 1.14509 11.0516 1.13982C11.6216 1.12627 12.1939 1.09766 12.7616 1.13606C13.8323 1.20909 14.3159 1.72786 14.3206 2.76164C14.326 4.04088 14.3167 5.32012 14.3159 6.59935C14.3143 8.34315 14.326 10.0862 14.305 11.83C14.3003 12.1982 14.2388 12.5897 14.0963 12.927C13.7724 13.692 13.0801 13.9721 12.2812 13.9819C10.6467 14.003 9.0122 13.9879 7.37772 13.9879V13.9902H7.37382ZM13.3822 6.09564C13.0544 6.11296 12.771 6.14157 12.4883 6.14157C9.11499 6.14533 5.7409 6.14458 2.36759 6.14458C2.12152 6.14458 1.86221 6.18223 1.63094 6.1235C1.22057 6.01959 1.17774 6.19879 1.18241 6.52255C1.19643 7.45092 1.18553 8.37929 1.18942 9.30766C1.19254 10.2232 1.16684 11.1403 1.21901 12.0536C1.26495 12.8653 1.58889 13.125 2.43533 13.1401C3.25219 13.1544 4.06982 13.1476 4.88745 13.1461C7.37849 13.1416 9.86954 13.1446 12.3606 13.1235C13.0466 13.1175 13.3931 12.7757 13.4001 12.1184C13.4204 10.1743 13.4173 8.22946 13.4212 6.28538C13.4212 6.2259 13.397 6.16717 13.3822 6.09639V6.09564ZM9.81036 3.67495C9.81036 3.19006 9.80258 2.75411 9.81348 2.31892C9.81971 2.05991 9.71225 1.97031 9.4436 1.97181C8.03026 1.9816 6.61693 1.98236 5.2036 1.97483C4.93573 1.97332 4.82982 2.06367 4.83761 2.32419C4.85085 2.75863 4.8415 3.19383 4.8415 3.64182H3.94912C3.94912 3.17049 3.96781 2.73153 3.93666 2.29633C3.92887 2.18414 3.76457 1.99139 3.67112 1.99064C3.11669 1.98838 2.55759 1.99967 2.00861 2.06819C1.52115 2.12842 1.2743 2.4055 1.24081 2.87534C1.20188 3.42423 1.18319 3.97688 1.19954 4.52728C1.21823 5.18007 1.36774 5.29 2.06078 5.29C4.93962 5.28849 7.81846 5.29 10.6965 5.28849C11.4098 5.28849 12.1231 5.28322 12.8356 5.27946C13.2148 5.2772 13.4118 5.09875 13.4095 4.72454C13.4064 4.12295 13.4157 3.52135 13.3994 2.91976C13.3877 2.47703 13.1198 2.13897 12.6651 2.07873C12.1044 2.00419 11.5336 1.99214 10.9667 1.98612C10.8811 1.98537 10.7261 2.15854 10.7175 2.26019C10.6872 2.64644 10.7175 3.03797 10.6911 3.42498C10.6848 3.51307 10.5509 3.64634 10.4559 3.66366C10.2597 3.70055 10.051 3.67495 9.80958 3.67495H9.81036Z"/>
	</symbol>
	<symbol id="chevron" viewBox="0 0 11 6">
		<path d="M1 1L5.5 5L10 1" stroke="black" stroke-linecap="round" fill="none"/>
	</symbol>
	<symbol id="clock" viewBox="0 0 24 24">
		<path xmlns="http://www.w3.org/2000/svg" d="M 12 2 C 6.4889971 2 2 6.4889971 2 12 C 2 17.511003 6.4889971 22 12 22 C 17.511003 22 22 17.511003 22 12 C 22 6.4889971 17.511003 2 12 2 z M 12 4 C 16.430123 4 20 7.5698774 20 12 C 20 16.430123 16.430123 20 12 20 C 7.5698774 20 4 16.430123 4 12 C 4 7.5698774 7.5698774 4 12 4 z M 11 6 L 11 12.414062 L 15.292969 16.707031 L 16.707031 15.292969 L 13 11.585938 L 13 6 L 11 6 z"/>
	</symbol>
	<symbol id="exclamation-mark" viewBox="0 0 14 12">
		<ellipse cx="6.56085" cy="6" rx="6.56085" ry="6" fill="#D9D9D9"/>
		<path d="M5.83179 8.66671V7.82015H7.28975V8.66671H5.83179ZM5.90469 3.33337H7.20227V4.82332L6.85236 7.26988H6.26918L5.90469 4.82332V3.33337Z" fill="white"/>
	</symbol>
	<symbol id="facebook" viewBox="0 0 19 18">
		<path d="M11.8609 2.98875H13.5042V0.12675C13.2207 0.08775 12.2457 0 11.1102 0C8.74092 0 7.11792 1.49025 7.11792 4.22925V6.75H4.50342V9.9495H7.11792V18H10.3234V9.95025H12.8322L13.2304 6.75075H10.3227V4.5465C10.3234 3.62175 10.5724 2.98875 11.8609 2.98875Z"/>
	</symbol>
	<symbol id="linkedIn" viewBox="0 0 19 18">
		<path d="M18.4955 18.0002V17.9994H18.5V11.3979C18.5 8.16841 17.8047 5.68066 14.0292 5.68066C12.2142 5.68066 10.9962 6.67666 10.499 7.62091H10.4465V5.98216H6.8667V17.9994H10.5942V12.0489C10.5942 10.4822 10.8912 8.96716 12.8315 8.96716C14.7432 8.96716 14.7717 10.7552 14.7717 12.1494V18.0002H18.4955Z"/>
		<path d="M0.796875 5.98291H4.52888V18.0002H0.796875V5.98291Z"/>
		<path d="M2.6615 0C1.46825 0 0.5 0.96825 0.5 2.1615C0.5 3.35475 1.46825 4.34325 2.6615 4.34325C3.85475 4.34325 4.823 3.35475 4.823 2.1615C4.82225 0.96825 3.854 0 2.6615 0V0Z"/>
	</symbol>
	<symbol id="instagram" viewBox="0 0 19 18">
		<path d="M18.4542 5.29205C18.412 4.33564 18.2573 3.67812 18.0358 3.10836C17.8072 2.50359 17.4556 1.96213 16.9949 1.51201C16.5448 1.05489 15.9998 0.699691 15.402 0.474702C14.8289 0.253147 14.1748 0.0984842 13.2184 0.0563159C12.2549 0.0105764 11.949 0 9.50516 0C7.06133 0 6.75544 0.0105764 5.79546 0.0527447C4.83905 0.0949129 4.18153 0.249713 3.61191 0.471131C3.007 0.699691 2.46554 1.05132 2.01543 1.51201C1.55831 1.96213 1.20325 2.50716 0.978119 3.10493C0.756565 3.67812 0.601902 4.33207 0.559734 5.28848C0.513994 6.25203 0.503418 6.55792 0.503418 9.00176C0.503418 11.4456 0.513994 11.7515 0.556163 12.7115C0.598331 13.6679 0.753131 14.3254 0.974685 14.8952C1.20325 15.4999 1.55831 16.0414 2.01543 16.4915C2.46554 16.9486 3.01057 17.3038 3.60834 17.5288C4.18153 17.7504 4.83548 17.905 5.79202 17.9472C6.75187 17.9895 7.05789 17.9999 9.50173 17.9999C11.9456 17.9999 12.2515 17.9895 13.2114 17.9472C14.1678 17.905 14.8254 17.7504 15.395 17.5288C16.6047 17.0611 17.5611 16.1047 18.0288 14.8952C18.2502 14.322 18.405 13.6679 18.4472 12.7115C18.4893 11.7515 18.4999 11.4456 18.4999 9.00176C18.4999 6.55792 18.4963 6.25203 18.4542 5.29205ZM16.8332 12.6411C16.7945 13.5202 16.6468 13.9949 16.5238 14.3114C16.2213 15.0956 15.5989 15.7179 14.8148 16.0204C14.4983 16.1434 14.0202 16.2911 13.1445 16.3297C12.1951 16.372 11.9104 16.3824 9.50873 16.3824C7.10707 16.3824 6.81876 16.372 5.87279 16.3297C4.99371 16.2911 4.51901 16.1434 4.20254 16.0204C3.81232 15.8761 3.45711 15.6476 3.16881 15.3487C2.86992 15.0568 2.64136 14.7052 2.49714 14.315C2.37407 13.9985 2.22641 13.5202 2.18781 12.6447C2.14551 11.6953 2.13507 11.4104 2.13507 9.00876C2.13507 6.60709 2.14551 6.31878 2.18781 5.37295C2.22641 4.49387 2.37407 4.01917 2.49714 3.7027C2.64136 3.31234 2.86992 2.95727 3.17238 2.66883C3.46412 2.36994 3.81575 2.14138 4.20612 1.99729C4.52258 1.87422 5.00086 1.72656 5.87636 1.68783C6.82576 1.64566 7.11064 1.63508 9.51217 1.63508C11.9174 1.63508 12.2021 1.64566 13.1481 1.68783C14.0272 1.72656 14.5019 1.87422 14.8184 1.99729C15.2086 2.14138 15.5638 2.36994 15.8521 2.66883C16.151 2.96071 16.3795 3.31234 16.5238 3.7027C16.6468 4.01917 16.7945 4.49731 16.8332 5.37295C16.8754 6.32236 16.886 6.60709 16.886 9.00876C16.886 11.4104 16.8754 11.6917 16.8332 12.6411Z"/>
		<path d="M9.5053 4.37744C6.95254 4.37744 4.88135 6.44849 4.88135 9.00139C4.88135 11.5543 6.95254 13.6253 9.5053 13.6253C12.0582 13.6253 14.1292 11.5543 14.1292 9.00139C14.1292 6.44849 12.0582 4.37744 9.5053 4.37744ZM9.5053 12.0008C7.8492 12.0008 6.50586 10.6576 6.50586 9.00139C6.50586 7.34515 7.8492 6.00195 9.5053 6.00195C11.1615 6.00195 12.5047 7.34515 12.5047 9.00139C12.5047 10.6576 11.1615 12.0008 9.5053 12.0008Z"/>
		<path d="M15.391 4.19521C15.391 4.79133 14.9077 5.27469 14.3114 5.27469C13.7153 5.27469 13.2319 4.79133 13.2319 4.19521C13.2319 3.59894 13.7153 3.11572 14.3114 3.11572C14.9077 3.11572 15.391 3.59894 15.391 4.19521Z"/>
	</symbol>
	<symbol id="x" viewBox="0 0 19 18">
		<g clip-path="url(#clip0_279_11711)">
			<path d="M15.4557 14.8229L10.7799 8.03008L10.2513 7.26183L6.90656 2.40269L6.62945 2H2.51953L3.5219 3.45663L7.96907 9.91817L8.49769 10.6856L12.0709 15.8773L12.3481 16.2796H16.458L15.4557 14.823V14.8229ZM12.8366 15.3499L9.12427 9.95623L8.59566 9.18845L4.28792 2.92966H6.14089L9.62458 7.9912L10.1532 8.75898L14.6895 15.3497H12.8366V15.3499Z"/>
			<path d="M8.59564 9.18848L9.12425 9.95626L8.49755 10.6856L3.68916 16.2797H2.50342L7.96894 9.9182L8.59564 9.18848Z"/>
			<path d="M15.9631 2L10.7798 8.03008L10.1531 8.75898L9.62451 7.9912L10.2512 7.26183L13.7623 3.17517L14.7773 2H15.9631Z"/>
		</g>
		<defs>
			<clipPath id="clip0_279_11711">
				<rect width="13.9545" height="14.2795" fill="white" transform="translate(2.50342 2)"/>
			</clipPath>
		</defs>
	</symbol>
	<symbol id="user" viewBox="0 0 13 13" fill="none">
		<path d="M6.5 8.125C8.29493 8.125 9.75 6.66993 9.75 4.875C9.75 3.08007 8.29493 1.625 6.5 1.625C4.70507 1.625 3.25 3.08007 3.25 4.875C3.25 6.66993 4.70507 8.125 6.5 8.125Z" stroke="black" stroke-width="1.5" stroke-miterlimit="10"/>
		<path d="M1.57373 10.9683C2.07319 10.1038 2.79137 9.38589 3.65611 8.88681C4.52085 8.38772 5.5017 8.12499 6.50013 8.125C7.49856 8.12501 8.4794 8.38776 9.34413 8.88687C10.2089 9.38597 10.927 10.1038 11.4265 10.9684" stroke="black" stroke-width="1.5" stroke-linecap="round" stroke-linejoin="round"/>
	</symbol>
	<symbol id="search" viewBox="0 0 17 17" fill="none">
		<path d="M7.70312 13.2812C10.7838 13.2812 13.2812 10.7838 13.2812 7.70312C13.2812 4.62241 10.7838 2.125 7.70312 2.125C4.62241 2.125 2.125 4.62241 2.125 7.70312C2.125 10.7838 4.62241 13.2812 7.70312 13.2812Z" stroke-width="1.5" stroke-linecap="round" stroke-linejoin="round"/>
		<path d="M11.6472 11.6477L14.8746 14.8751" stroke="#777777" stroke-width="1.5" stroke-linecap="round" stroke-linejoin="round"/>
	</symbol>
</svg>