<svg width="220" height="34" viewBox="0 0 220 34" fill="none" xmlns="http://www.w3.org/2000/svg">
<path d="M24.3151 3.63516C24.3151 3.63516 32.3181 7.20767 31.6303 16.4681C31.6303 16.4681 31.5193 23.3468 24.1598 25.7433C22.2959 26.3498 20.4689 25.6175 22.1553 24.1456C22.1553 24.1456 27.4956 20.3217 28.0504 14.116C28.0504 14.116 28.7604 8.70916 24.3151 3.63516Z" fill="#FF551F"/>
<path d="M7.82086 20.8098C7.82086 20.8098 7.24393 25.2625 12.0443 29.0865C12.0443 29.0865 18.4052 34.9593 26.2825 29.264C26.2825 29.264 30.7352 26.2832 32 19.7447C32 19.7447 30.0621 25.3513 23.1908 26.8897C23.1908 26.8897 16.3194 28.9829 11.2454 22.8808C11.2454 22.8808 8.07234 18.3098 7.82086 20.8098Z" fill="#FF551F"/>
<path d="M15.92 33.088C15.92 33.088 4.92882 33.1768 1.01608 22.585C1.01608 22.585 -4.45733 9.05678 10.0028 2.03011C10.0028 2.03011 17.6212 -0.950678 22.4807 2.82153C22.4807 2.82153 24.2189 4.10113 24.6405 5.6322C24.6405 5.6322 24.7071 7.03754 22.0369 5.45469C22.0369 5.45469 16.9185 2.45171 11.9555 4.3674C11.9555 4.3674 6.97026 5.29196 4.07083 9.62631C4.07083 9.62631 2.50277 11.1944 1.43768 17.4666C1.43768 17.4666 3.24242 10.1293 8.24245 8.25796C8.24245 8.25796 10.5797 7.37038 8.84157 9.14554C8.84157 9.14554 3.56787 13.7905 5.97173 23.2728C5.97173 23.2728 8.44216 30.0776 15.9126 33.0806L15.92 33.088Z" fill="#FF551F"/>
<path d="M11.5487 7.69581C11.5487 7.69581 14.8549 5.4103 19.1227 6.06119C19.1227 6.06119 22.3919 6.56415 23.2277 8.96801C23.2277 8.96801 23.6493 10.0775 23.1686 10.9281C22.8875 11.4163 22.207 11.8748 21.1567 11.1426C21.1567 11.1426 18.8564 8.67215 16.815 7.96949C16.815 7.96949 15.0102 7.07451 11.5413 7.70321L11.5487 7.69581Z" fill="#FF551F"/>
<path d="M24.8254 10.5879C24.8254 10.5879 26.46 12.3926 26.0976 14.3231C26.0976 14.3231 25.7796 16.8157 23.4201 16.1574C23.4201 16.1574 22.1701 15.6914 22.6508 14.6411C22.9467 14.005 23.7233 13.9237 24.2041 12.8216C24.2041 12.8216 24.8328 11.7713 24.818 10.5953L24.8254 10.5879Z" fill="#FF551F"/>
<path d="M48.88 14.5H46.88V4.42H54.096V6.084H48.88V8.772H52.912V10.404H48.88V14.5ZM55.38 4.42H57.38V12.836H62.708V14.5H55.38V4.42ZM63.9894 4.42H65.9894V14.5H63.9894V4.42ZM69.7546 4.42L74.5226 11.14V4.42H76.3786V14.5H74.7786L69.6266 7.396V14.5H67.7706V4.42H69.7546ZM83.2016 14.5H81.2016V6.084H77.6336V4.42H86.8176V6.084H83.2016V14.5ZM97.8705 4.42L99.8385 11.844H99.9025L101.743 4.42H103.663L101.055 14.5H98.8465L96.9425 7.236H96.8785L94.9585 14.5H92.7665L90.1585 4.42H92.1585L94.0145 11.828H94.0785L96.0305 4.42H97.8705ZM107.457 4.42H109.681L113.793 14.5H111.665L110.657 12.004H106.369L105.393 14.5H103.377L107.457 4.42ZM108.465 6.692L106.977 10.468H110.049L108.529 6.692H108.465ZM118.53 14.5H116.53V6.084H112.962V4.42H122.146V6.084H118.53V14.5ZM130.932 12.836V14.5H123.396V4.42H130.788V6.084H125.364V8.532H129.62V10.18H125.364V12.836H130.932ZM140.877 14.5H138.829C138.621 14.228 138.493 13.54 138.413 12.42C138.333 11.284 137.821 10.772 136.669 10.772H134.301V14.5H132.333V4.42H136.893C139.469 4.42 140.733 5.62 140.733 7.492C140.733 9.012 139.741 9.892 138.509 10.052C139.661 10.276 140.253 10.948 140.365 12.132C140.493 13.62 140.541 14.132 140.877 14.5ZM134.301 9.204H136.621C138.077 9.204 138.749 8.724 138.749 7.636C138.749 6.628 138.077 6.036 136.621 6.036H134.301V9.204ZM144.619 9.46C144.619 6.356 146.811 4.228 149.675 4.228C152.651 4.228 154.299 6.1 154.475 8.644L152.555 8.724C152.411 7.22 151.515 5.988 149.675 5.988C147.883 5.988 146.699 7.332 146.699 9.46C146.699 11.588 147.883 12.932 149.675 12.932C151.515 12.932 152.411 11.7 152.555 10.196L154.475 10.276C154.299 12.836 152.651 14.692 149.675 14.692C146.811 14.692 144.619 12.564 144.619 9.46ZM164.299 14.5H162.251C162.043 14.228 161.915 13.54 161.835 12.42C161.755 11.284 161.243 10.772 160.091 10.772H157.723V14.5H155.755V4.42H160.315C162.891 4.42 164.155 5.62 164.155 7.492C164.155 9.012 163.163 9.892 161.931 10.052C163.083 10.276 163.675 10.948 163.787 12.132C163.915 13.62 163.963 14.132 164.299 14.5ZM157.723 9.204H160.043C161.499 9.204 162.171 8.724 162.171 7.636C162.171 6.628 161.499 6.036 160.043 6.036H157.723V9.204ZM165.63 4.42H167.63V14.5H165.63V4.42ZM168.867 10.916L170.707 10.836C170.787 12.404 171.923 13.108 173.331 13.108C174.579 13.108 175.379 12.612 175.379 11.764C175.379 10.996 174.771 10.708 173.715 10.5L171.795 10.148C170.227 9.86 169.139 8.996 169.139 7.332C169.139 5.444 170.627 4.228 172.979 4.228C175.619 4.228 177.107 5.588 177.139 7.828L175.299 7.892C175.235 6.516 174.339 5.796 172.963 5.796C171.779 5.796 171.107 6.324 171.107 7.188C171.107 7.924 171.635 8.18 172.547 8.356L174.403 8.692C176.387 9.06 177.315 10.004 177.315 11.636C177.315 13.62 175.603 14.692 173.331 14.692C170.739 14.692 168.867 13.348 168.867 10.916ZM178.724 4.42H180.724V14.5H178.724V4.42ZM181.961 10.916L183.801 10.836C183.881 12.404 185.017 13.108 186.425 13.108C187.673 13.108 188.473 12.612 188.473 11.764C188.473 10.996 187.865 10.708 186.809 10.5L184.889 10.148C183.321 9.86 182.233 8.996 182.233 7.332C182.233 5.444 183.721 4.228 186.073 4.228C188.713 4.228 190.201 5.588 190.233 7.828L188.393 7.892C188.329 6.516 187.433 5.796 186.057 5.796C184.873 5.796 184.201 6.324 184.201 7.188C184.201 7.924 184.729 8.18 185.641 8.356L187.497 8.692C189.481 9.06 190.409 10.004 190.409 11.636C190.409 13.62 188.697 14.692 186.425 14.692C183.833 14.692 181.961 13.348 181.961 10.916ZM48.864 23.396H50.832C52.336 23.396 52.992 22.82 52.992 21.732C52.992 20.644 52.336 20.036 50.832 20.036H48.864V23.396ZM48.864 25.028V28.5H46.88V18.42H50.896C53.472 18.42 54.944 19.62 54.944 21.716C54.944 23.812 53.472 25.028 50.896 25.028H48.864ZM60.2599 28.692C57.8439 28.692 55.9559 27.524 55.9559 24.58V18.42H57.9399V24.372C57.9399 26.116 58.6759 27.012 60.2599 27.012C61.8599 27.012 62.5959 26.116 62.5959 24.388V18.42H64.5959V24.58C64.5959 27.524 62.6759 28.692 60.2599 28.692ZM74.6554 25.732C74.6554 27.476 73.3274 28.5 70.9754 28.5H66.2394V18.42H70.7194C73.2634 18.42 74.3514 19.508 74.3514 21.156C74.3514 22.292 73.5834 23.092 72.4954 23.268C73.7114 23.492 74.6554 24.292 74.6554 25.732ZM70.7514 24.132H68.1914V26.884H70.7514C71.9994 26.884 72.6074 26.356 72.6074 25.524C72.6074 24.676 71.9994 24.132 70.7514 24.132ZM68.1914 20.036V22.612H70.5914C71.7914 22.612 72.3034 22.084 72.3034 21.332C72.3034 20.58 71.7914 20.036 70.5914 20.036H68.1914ZM76.005 18.42H78.005V26.836H83.333V28.5H76.005V18.42ZM84.6144 18.42H86.6144V28.5H84.6144V18.42ZM87.9316 23.46C87.9316 20.356 90.1236 18.228 92.9876 18.228C95.9636 18.228 97.6116 20.1 97.7876 22.644L95.8676 22.724C95.7236 21.22 94.8276 19.988 92.9876 19.988C91.1956 19.988 90.0116 21.332 90.0116 23.46C90.0116 25.588 91.1956 26.932 92.9876 26.932C94.8276 26.932 95.7236 25.7 95.8676 24.196L97.7876 24.276C97.6116 26.836 95.9636 28.692 92.9876 28.692C90.1236 28.692 87.9316 26.564 87.9316 23.46ZM105.239 18.42H107.463L111.575 28.5H109.447L108.439 26.004H104.151L103.174 28.5H101.159L105.239 18.42ZM106.247 20.692L104.759 24.468H107.831L106.311 20.692H106.247ZM121.096 28.5H119.048C118.84 28.228 118.712 27.54 118.632 26.42C118.552 25.284 118.04 24.772 116.888 24.772H114.52V28.5H112.552V18.42H117.112C119.688 18.42 120.952 19.62 120.952 21.492C120.952 23.012 119.96 23.892 118.728 24.052C119.88 24.276 120.472 24.948 120.584 26.132C120.712 27.62 120.76 28.132 121.096 28.5ZM114.52 23.204H116.84C118.296 23.204 118.968 22.724 118.968 21.636C118.968 20.628 118.296 20.036 116.84 20.036H114.52V23.204ZM121.9 23.46C121.9 20.356 124.092 18.228 126.956 18.228C129.932 18.228 131.58 20.1 131.756 22.644L129.836 22.724C129.692 21.22 128.796 19.988 126.956 19.988C125.164 19.988 123.98 21.332 123.98 23.46C123.98 25.588 125.164 26.932 126.956 26.932C128.796 26.932 129.692 25.7 129.836 24.196L131.756 24.276C131.58 26.836 129.932 28.692 126.956 28.692C124.092 28.692 121.9 26.564 121.9 23.46ZM135.036 28.5H133.036V18.42H135.036V22.532H140.012V18.42H142.012V28.5H140.012V24.18H135.036V28.5ZM143.786 18.42H145.786V28.5H143.786V18.42ZM152.896 28.5H150.768L146.784 18.42H148.88L151.856 26.068H151.92L154.864 18.42H156.864L152.896 28.5ZM165.385 26.836V28.5H157.849V18.42H165.241V20.084H159.817V22.532H164.073V24.18H159.817V26.836H165.385Z" fill="black"/>
</svg>
