<svg width="204" height="34" viewBox="0 0 204 34" fill="none" xmlns="http://www.w3.org/2000/svg">
<path d="M24.8151 3.63525C24.8151 3.63525 32.8181 7.20776 32.1303 16.4682C32.1303 16.4682 32.0193 23.3469 24.6598 25.7434C22.7959 26.3499 20.9689 25.6176 22.6553 24.1457C22.6553 24.1457 27.9956 20.3217 28.5504 14.1161C28.5504 14.1161 29.2604 8.70925 24.8151 3.63525Z" fill="#FF551F"/>
<path d="M8.32086 20.8097C8.32086 20.8097 7.74393 25.2624 12.5443 29.0864C12.5443 29.0864 18.9052 34.9592 26.7825 29.2639C26.7825 29.2639 31.2352 26.2831 32.5 19.7446C32.5 19.7446 30.5621 25.3512 23.6908 26.8896C23.6908 26.8896 16.8194 28.9829 11.7454 22.8807C11.7454 22.8807 8.57234 18.3097 8.32086 20.8097Z" fill="#FF551F"/>
<path d="M16.42 33.0881C16.42 33.0881 5.42882 33.1769 1.51608 22.5851C1.51608 22.5851 -3.95733 9.0569 10.5028 2.03023C10.5028 2.03023 18.1212 -0.950556 22.9807 2.82166C22.9807 2.82166 24.7189 4.10125 25.1405 5.63233C25.1405 5.63233 25.2071 7.03766 22.5369 5.45481C22.5369 5.45481 17.4185 2.45183 12.4555 4.36752C12.4555 4.36752 7.47026 5.29209 4.57083 9.62643C4.57083 9.62643 3.00277 11.1945 1.93768 17.4667C1.93768 17.4667 3.74242 10.1294 8.74245 8.25808C8.74245 8.25808 11.0797 7.3705 9.34157 9.14566C9.34157 9.14566 4.06787 13.7907 6.47173 23.273C6.47173 23.273 8.94216 30.0777 16.4126 33.0807L16.42 33.0881Z" fill="#FF551F"/>
<path d="M12.0487 7.69609C12.0487 7.69609 15.3549 5.41057 19.6227 6.06146C19.6227 6.06146 22.8919 6.56443 23.7277 8.96829C23.7277 8.96829 24.1493 10.0778 23.6686 10.9284C23.3875 11.4165 22.707 11.8751 21.6567 11.1429C21.6567 11.1429 19.3564 8.67243 17.315 7.96976C17.315 7.96976 15.5102 7.07478 12.0413 7.70349L12.0487 7.69609Z" fill="#FF551F"/>
<path d="M25.3254 10.5879C25.3254 10.5879 26.96 12.3926 26.5976 14.3231C26.5976 14.3231 26.2796 16.8157 23.9201 16.1575C23.9201 16.1575 22.6701 15.6915 23.1508 14.6412C23.4467 14.0051 24.2233 13.9237 24.7041 12.8216C24.7041 12.8216 25.3328 11.7713 25.318 10.5953L25.3254 10.5879Z" fill="#FF551F"/>
<path d="M49.38 14.5H47.38V4.42H54.596V6.084H49.38V8.772H53.412V10.404H49.38V14.5ZM55.88 4.42H57.88V12.836H63.208V14.5H55.88V4.42ZM64.4894 4.42H66.4894V14.5H64.4894V4.42ZM70.2546 4.42L75.0226 11.14V4.42H76.8786V14.5H75.2786L70.1266 7.396V14.5H68.2706V4.42H70.2546ZM83.7016 14.5H81.7016V6.084H78.1336V4.42H87.3176V6.084H83.7016V14.5ZM98.3705 4.42L100.339 11.844H100.403L102.243 4.42H104.163L101.555 14.5H99.3465L97.4425 7.236H97.3785L95.4585 14.5H93.2665L90.6585 4.42H92.6585L94.5145 11.828H94.5785L96.5305 4.42H98.3705ZM107.957 4.42H110.181L114.293 14.5H112.165L111.157 12.004H106.869L105.893 14.5H103.877L107.957 4.42ZM108.965 6.692L107.477 10.468H110.549L109.029 6.692H108.965ZM119.03 14.5H117.03V6.084H113.462V4.42H122.646V6.084H119.03V14.5ZM131.432 12.836V14.5H123.896V4.42H131.288V6.084H125.864V8.532H130.12V10.18H125.864V12.836H131.432ZM141.377 14.5H139.329C139.121 14.228 138.993 13.54 138.913 12.42C138.833 11.284 138.321 10.772 137.169 10.772H134.801V14.5H132.833V4.42H137.393C139.969 4.42 141.233 5.62 141.233 7.492C141.233 9.012 140.241 9.892 139.009 10.052C140.161 10.276 140.753 10.948 140.865 12.132C140.993 13.62 141.041 14.132 141.377 14.5ZM134.801 9.204H137.121C138.577 9.204 139.249 8.724 139.249 7.636C139.249 6.628 138.577 6.036 137.121 6.036H134.801V9.204ZM145.119 9.46C145.119 6.356 147.311 4.228 150.175 4.228C153.151 4.228 154.799 6.1 154.975 8.644L153.055 8.724C152.911 7.22 152.015 5.988 150.175 5.988C148.383 5.988 147.199 7.332 147.199 9.46C147.199 11.588 148.383 12.932 150.175 12.932C152.015 12.932 152.911 11.7 153.055 10.196L154.975 10.276C154.799 12.836 153.151 14.692 150.175 14.692C147.311 14.692 145.119 12.564 145.119 9.46ZM164.799 14.5H162.751C162.543 14.228 162.415 13.54 162.335 12.42C162.255 11.284 161.743 10.772 160.591 10.772H158.223V14.5H156.255V4.42H160.815C163.391 4.42 164.655 5.62 164.655 7.492C164.655 9.012 163.663 9.892 162.431 10.052C163.583 10.276 164.175 10.948 164.287 12.132C164.415 13.62 164.463 14.132 164.799 14.5ZM158.223 9.204H160.543C161.999 9.204 162.671 8.724 162.671 7.636C162.671 6.628 161.999 6.036 160.543 6.036H158.223V9.204ZM166.13 4.42H168.13V14.5H166.13V4.42ZM169.367 10.916L171.207 10.836C171.287 12.404 172.423 13.108 173.831 13.108C175.079 13.108 175.879 12.612 175.879 11.764C175.879 10.996 175.271 10.708 174.215 10.5L172.295 10.148C170.727 9.86 169.639 8.996 169.639 7.332C169.639 5.444 171.127 4.228 173.479 4.228C176.119 4.228 177.607 5.588 177.639 7.828L175.799 7.892C175.735 6.516 174.839 5.796 173.463 5.796C172.279 5.796 171.607 6.324 171.607 7.188C171.607 7.924 172.135 8.18 173.047 8.356L174.903 8.692C176.887 9.06 177.815 10.004 177.815 11.636C177.815 13.62 176.103 14.692 173.831 14.692C171.239 14.692 169.367 13.348 169.367 10.916ZM179.224 4.42H181.224V14.5H179.224V4.42ZM182.461 10.916L184.301 10.836C184.381 12.404 185.517 13.108 186.925 13.108C188.173 13.108 188.973 12.612 188.973 11.764C188.973 10.996 188.365 10.708 187.309 10.5L185.389 10.148C183.821 9.86 182.733 8.996 182.733 7.332C182.733 5.444 184.221 4.228 186.573 4.228C189.213 4.228 190.701 5.588 190.733 7.828L188.893 7.892C188.829 6.516 187.933 5.796 186.557 5.796C185.373 5.796 184.701 6.324 184.701 7.188C184.701 7.924 185.229 8.18 186.141 8.356L187.997 8.692C189.981 9.06 190.909 10.004 190.909 11.636C190.909 13.62 189.197 14.692 186.925 14.692C184.333 14.692 182.461 13.348 182.461 10.916ZM49.364 23.396H51.332C52.836 23.396 53.492 22.82 53.492 21.732C53.492 20.644 52.836 20.036 51.332 20.036H49.364V23.396ZM49.364 25.028V28.5H47.38V18.42H51.396C53.972 18.42 55.444 19.62 55.444 21.716C55.444 23.812 53.972 25.028 51.396 25.028H49.364ZM60.7599 28.692C58.3439 28.692 56.4559 27.524 56.4559 24.58V18.42H58.4399V24.372C58.4399 26.116 59.1759 27.012 60.7599 27.012C62.3599 27.012 63.0959 26.116 63.0959 24.388V18.42H65.0959V24.58C65.0959 27.524 63.1759 28.692 60.7599 28.692ZM75.1554 25.732C75.1554 27.476 73.8274 28.5 71.4754 28.5H66.7394V18.42H71.2194C73.7634 18.42 74.8514 19.508 74.8514 21.156C74.8514 22.292 74.0834 23.092 72.9954 23.268C74.2114 23.492 75.1554 24.292 75.1554 25.732ZM71.2514 24.132H68.6914V26.884H71.2514C72.4994 26.884 73.1074 26.356 73.1074 25.524C73.1074 24.676 72.4994 24.132 71.2514 24.132ZM68.6914 20.036V22.612H71.0914C72.2914 22.612 72.8034 22.084 72.8034 21.332C72.8034 20.58 72.2914 20.036 71.0914 20.036H68.6914ZM76.505 18.42H78.505V26.836H83.833V28.5H76.505V18.42ZM85.1144 18.42H87.1144V28.5H85.1144V18.42ZM88.4316 23.46C88.4316 20.356 90.6236 18.228 93.4876 18.228C96.4636 18.228 98.1116 20.1 98.2876 22.644L96.3676 22.724C96.2236 21.22 95.3276 19.988 93.4876 19.988C91.6956 19.988 90.5116 21.332 90.5116 23.46C90.5116 25.588 91.6956 26.932 93.4876 26.932C95.3276 26.932 96.2236 25.7 96.3676 24.196L98.2876 24.276C98.1116 26.836 96.4636 28.692 93.4876 28.692C90.6236 28.692 88.4316 26.564 88.4316 23.46ZM105.739 18.42H107.963L112.075 28.5H109.947L108.939 26.004H104.651L103.674 28.5H101.659L105.739 18.42ZM106.747 20.692L105.259 24.468H108.331L106.811 20.692H106.747ZM121.596 28.5H119.548C119.34 28.228 119.212 27.54 119.132 26.42C119.052 25.284 118.54 24.772 117.388 24.772H115.02V28.5H113.052V18.42H117.612C120.188 18.42 121.452 19.62 121.452 21.492C121.452 23.012 120.46 23.892 119.228 24.052C120.38 24.276 120.972 24.948 121.084 26.132C121.212 27.62 121.26 28.132 121.596 28.5ZM115.02 23.204H117.34C118.796 23.204 119.468 22.724 119.468 21.636C119.468 20.628 118.796 20.036 117.34 20.036H115.02V23.204ZM122.4 23.46C122.4 20.356 124.592 18.228 127.456 18.228C130.432 18.228 132.08 20.1 132.256 22.644L130.336 22.724C130.192 21.22 129.296 19.988 127.456 19.988C125.664 19.988 124.48 21.332 124.48 23.46C124.48 25.588 125.664 26.932 127.456 26.932C129.296 26.932 130.192 25.7 130.336 24.196L132.256 24.276C132.08 26.836 130.432 28.692 127.456 28.692C124.592 28.692 122.4 26.564 122.4 23.46ZM135.536 28.5H133.536V18.42H135.536V22.532H140.512V18.42H142.512V28.5H140.512V24.18H135.536V28.5ZM144.286 18.42H146.286V28.5H144.286V18.42ZM153.396 28.5H151.268L147.284 18.42H149.38L152.356 26.068H152.42L155.364 18.42H157.364L153.396 28.5ZM165.885 26.836V28.5H158.349V18.42H165.741V20.084H160.317V22.532H164.573V24.18H160.317V26.836H165.885Z" fill="white"/>
</svg>
